<?xml version="1.0" encoding="utf-8"?>
<!-- Generator: Adobe Illustrator 27.4.0, SVG Export Plug-In . SVG Version: 6.00 Build 0)  -->
<svg version="1.1" id="Layer_1" xmlns="http://www.w3.org/2000/svg" xmlns:xlink="http://www.w3.org/1999/xlink" x="0px" y="0px"
	 width="28.4px" height="27.6px" viewBox="0 0 28.4 27.6" style="enable-background:new 0 0 28.4 27.6;" xml:space="preserve">
<style type="text/css">
	.st0{fill:#D6B469;}
	.st1{fill:#9E5224;}
	.st2{fill:#8CB1C6;}
</style>
<g>
	<path class="st0" d="M15.8,0L0.5,10.1C0.2,11.3,0,12.5,0,13.7c0,1.6,0.3,3,0.7,4.4L19.3,0.9C18.2,0.5,17,0.2,15.8,0z"/>
	<path class="st1" d="M22.1,2.6L2.1,21c1.5,2.5,3.8,4.4,6.5,5.5L24.7,5.1C24,4.2,23.1,3.3,22.1,2.6z"/>
	<path class="st2" d="M26.5,7.9L11.7,27.4c0.7,0.1,1.4,0.2,2.2,0.2c2.2,0,4.3-0.5,6.2-1.5l7.6-13.9C27.5,10.7,27.1,9.3,26.5,7.9z"/>
</g>
</svg>
