<?xml version="1.0" encoding="utf-8"?>
<!-- Generator: Adobe Illustrator 27.4.0, SVG Export Plug-In . SVG Version: 6.00 Build 0)  -->
<svg version="1.1" id="Layer_1" xmlns="http://www.w3.org/2000/svg" xmlns:xlink="http://www.w3.org/1999/xlink" x="0px" y="0px"
	 width="252.8px" height="56.5px" viewBox="0 0 252.8 56.5" style="enable-background:new 0 0 252.8 56.5;" xml:space="preserve">
<style type="text/css">
	.st0{fill:#D8BA68;}
	.st1{fill:#8CB1C6;}
</style>
<g>
	<g>
		<path class="st0" d="M47.8,24c1.3,0.3,1.9,1.4,1.9,3.3v8.5c0,2.7,0,5.2,0,7.4h10.7c0.1-7,0.1-11.3,0.1-12.9c1.4-1.4,2.8-2.5,4-3.3
			c1.3-0.8,2.6-1.2,3.9-1.2c1.9,0,2.8,2.1,2.8,6.2v0.4c0.4,0.1,0.9,0.1,1.3,0.1c2,0,3.7-0.7,5.2-2c1.4-1.3,2.2-3,2.2-5
			c0-2.6-0.7-4.5-2.2-5.9c-1.5-1.3-3.4-2-5.8-2c-1.2,0-2.3,0.2-3.4,0.6c-2.2,0.8-4.9,3.2-8.2,7.2c-0.1-1.2-0.2-2.4-0.3-3.7
			c-0.1-1.3-0.5-2.6-1.2-3.8c-0.4,0-1,0-1.9,0c-5.1,0-9.4,1-12.9,2.9c0,0.2,0,0.5,0,0.9s0.1,0.9,0.3,1.6C45.8,23.5,47,23.7,47.8,24z
			"/>
		<path class="st0" d="M11.8,43.1c-0.4-1.7-0.6-3.7-0.6-6c0-4.6,1.1-8,3.4-10.3c2.3-2.3,5.2-3.4,8.8-3.4c1.7,0,3.5,0.1,5.2,0.4
			c0.1,3.5,0.1,7.6,0.1,12.1c0,2.6,0,5-0.1,7.1h10.2c-0.1-5.1-0.1-9.5-0.1-13.3L39,7.5c0-1.6-0.1-3.2-0.4-4.6
			c-0.2-1.4-0.5-2.4-0.9-2.9c-0.2,0-0.4,0-0.7,0c-4.5,0-9.1,0.9-13.6,2.6c0,0.2,0,0.4,0,0.5c0,0.2,0.1,0.8,0.3,2
			c1.3,0.1,2.3,0.5,3.2,1.2c0.8,0.7,1.3,1.7,1.4,2.9l0.2,9.5c-2.9-0.5-5.2-0.7-6.9-0.7c-5.8,0-10.8,1.7-14.9,5
			c-2,1.6-3.6,3.7-4.8,6.3C0.6,31.9,0,34.8,0,38c0,1.8,0.2,3.5,0.4,5.1H11.8z"/>
		<path class="st0" d="M222.8,43.1c0.3-0.8,0.9-1.5,1.5-2.1c1.4-1.3,3.4-1.9,6-1.9l5-0.2c-0.1,1.7-0.1,3-0.1,4.2h11.1l0.1-7.3
			c0-4.2-0.5-7.7-1.4-10.4c-0.8-2.3-2.1-4.1-4-5.4c-2.1-1.4-5.4-2.1-9.8-2.1c-4.3,0-8.1,0.7-11.5,2c-1.7,0.7-3,1.6-4,2.9
			c-1,1.2-1.5,2.5-1.5,3.9c0,1.4,0.4,2.5,1.2,3.3c0.8,0.8,1.9,1.2,3.3,1.2s2.7-0.3,4.1-1c0.8-0.4,1.2-0.8,1.2-1
			c0-2.2,0.4-3.8,1.3-4.9c0.9-1.1,2.1-1.7,3.7-1.7c2.7,0,4.5,0.7,5.4,2c1,1.3,1.5,3.2,1.5,5.8c0,1.1-0.1,2.7-0.3,4.6l-4.2,0.1
			c-5.3,0.1-9.8,1.1-13.6,2.8c-2,0.9-3.5,2.1-4.7,3.7c-0.4,0.5-0.7,1.1-1,1.7H222.8z"/>
		<path class="st0" d="M130.3,43.1c-0.4-1.7-0.6-3.7-0.6-6c0-4.6,1.1-8,3.4-10.3c2.3-2.3,5.2-3.4,8.8-3.4c1.7,0,3.5,0.1,5.2,0.4
			c0.1,3.5,0.1,7.6,0.1,12.1c0,2.6,0,5-0.1,7.1h10.2c-0.1-5.1-0.1-9.5-0.1-13.3l0.3-22.3c0-1.6-0.1-3.2-0.4-4.6
			c-0.2-1.4-0.5-2.4-0.9-2.9c-0.2,0-0.4,0-0.7,0c-4.5,0-9.1,0.9-13.6,2.6c0,0.2,0,0.4,0,0.5c0,0.2,0.1,0.8,0.3,2
			c1.3,0.1,2.3,0.5,3.2,1.2c0.8,0.7,1.3,1.7,1.4,2.9l0.2,9.5c-2.9-0.5-5.2-0.7-6.9-0.7c-5.8,0-10.8,1.7-14.9,5
			c-2,1.6-3.6,3.7-4.8,6.3c-1.2,2.6-1.8,5.5-1.8,8.7c0,1.8,0.2,3.5,0.4,5.1H130.3z"/>
		<path class="st0" d="M164,5.2c2.9,0.3,4.4,1.7,4.5,4.1c0.2,6.4,0.4,15.6,0.4,26.1c0,2.8,0,5.4-0.1,7.7h10.6
			c0.1-5.4,0.1-9.4,0.1-12.1c3.8-3.7,7.1-5.5,10.1-5.5c1.3,0,2.2,0.1,2.7,0.4c0.3,0.1,0.5,0.3,0.8,0.5c0.2,0.2,0.4,0.4,0.6,0.6
			c0.2,0.2,0.3,0.5,0.4,0.8c0.1,0.3,0.2,0.6,0.3,0.9c0.1,0.3,0.1,0.7,0.2,1.1c0,0.4,0.1,0.8,0.1,1.2c0,0.4,0,0.8,0,1.3s0,0.9,0,1.4
			c0,0.5,0,0.8,0,1l-0.2,8.5h10.2c0.1-1,0.1-2,0.2-3.1c0.3-3.4,0.4-5.9,0.4-7.4c0-1.5,0-3-0.1-4.4c-0.2-3.3-1.2-5.8-2.8-7.7
			c-1.6-1.9-3.8-2.8-6.7-2.8c-2.8,0-5.7,0.7-8.5,2c-2.8,1.4-5.4,3.3-7.5,6c0-2,0-5.1,0-9.3c0-4.3-0.1-8.5-0.3-11.2
			c-0.1-2.7-0.5-4.3-1.1-5.1c-0.2,0-0.8,0-1.7,0s-2.5,0.1-4.7,0.4c-2.2,0.3-4.8,1-8,2.3c0,0.2,0,0.4,0,0.7c0,0.2,0,0.6,0.1,1.1
			C163.9,4.8,163.9,5,164,5.2z"/>
		<path class="st0" d="M90.6,43.1c0.3-0.8,0.9-1.5,1.5-2.1c1.4-1.3,3.4-1.9,6-1.9l5-0.2c-0.1,1.7-0.1,3-0.1,4.2h11.1l0.1-7.3
			c0-4.2-0.5-7.7-1.4-10.4c-0.8-2.3-2.1-4.1-4-5.4c-2.1-1.4-5.4-2.1-9.8-2.1c-4.3,0-8.1,0.7-11.5,2c-1.7,0.7-3,1.6-4,2.9
			c-1,1.2-1.5,2.5-1.5,3.9c0,1.4,0.4,2.5,1.2,3.3c0.8,0.8,1.9,1.2,3.3,1.2c1.4,0,2.7-0.3,4.1-1c0.8-0.4,1.2-0.8,1.2-1
			c0-2.2,0.4-3.8,1.3-4.9c0.9-1.1,2.1-1.7,3.7-1.7c2.7,0,4.5,0.7,5.4,2s1.5,3.2,1.5,5.8c0,1.1-0.1,2.7-0.3,4.6l-4.2,0.1
			c-5.3,0.1-9.8,1.1-13.6,2.8c-2,0.9-3.5,2.1-4.7,3.7c-0.4,0.5-0.7,1.1-1,1.7H90.6z"/>
	</g>
	<path class="st1" d="M252.2,49.5c-0.3-0.5-0.6-0.9-1-1.2c-1.1,0.6-2.1,0.9-3.1,0.9c-1,0-1.6-0.5-1.8-1.4h-10.7c0,0,0,0,0,0
		c-2.3,1.4-4.8,2.1-7.2,2.1s-4.2-0.4-5-1.2c-0.2-0.2-0.4-0.6-0.6-0.9h-6.7h-4.4c-0.2,0.6,0,2.1-3.5,2.3c-0.9,0-1.7-0.2-2.6-0.5
		s-1.3-0.8-1.3-1.4c0-0.1,0-0.3,0-0.4h-4.4h-5.7h-14.9H170h-1.3c-0.6,0-1.7,0.1-2.4,0.4c-1.5,0.7-2.6,1.8-6.8,1.8c0,0,0,0,0,0
		c0,0,0,0-0.1,0c-1.2-0.1-1.9-0.8-2-2.2h-11.7c-1,1-1.8,1.7-2.6,2.1c-1,0.6-2.5,0.9-4.4,0.9c-1.9,0-3.8-0.9-5.5-2.7
		c-0.1-0.1-0.2-0.2-0.2-0.3h-1.2h-6.4h-4.5c-1.2,0-1.4,0.2-1.9,0.4c-0.3,0.1-0.7,0.3-1,0.5c-0.7,0.3-1.4,0.4-2.1,0.4
		c-1,0-1.6-0.5-1.8-1.4h-10.7c0,0,0,0,0,0c-2.3,1.4-4.8,2.1-7.2,2.1c-2.5,0-4.2-0.4-5-1.2c-0.2-0.2-0.4-0.6-0.6-0.9H89h-9.5H60.3H51
		h-1.3c-2.4,0-3.2,2.3-8.7,2.2c-1.2-0.1-1.9-0.8-2-2.2H27.3c-1,1-1.8,1.7-2.6,2.1c-1,0.6-2.5,0.9-4.4,0.9c-1.9,0-3.8-0.9-5.5-2.7
		c-0.1-0.1-0.2-0.2-0.2-0.3H2.4c0.4,0.8,0.9,1.6,1.5,2.3c1.2,1.4,2.5,2.7,4.1,3.6c1.6,1,3.2,1.6,4.8,2c1.6,0.4,3.4,0.6,5.3,0.6
		s3.8-0.4,5.4-1.1c1.7-0.7,3.3-1.9,5.1-3.6c1.2,2.8,2.8,4.3,4.8,4.7c2.9,0,6.4-1.2,10.6-3.5c1.8-0.9,3.8-1.4,5.6-1.7
		c-0.1,1.6-0.1,2.9-0.2,4c1.2,0.5,2.7,0.7,4.4,0.7c1.7,0,3.9-0.2,6.6-0.7c0-0.7,0-1.4,0-2.1c0.3-1.6,1.7-2.5,2.6-2.5
		c5.5,0,12.2,0,17.4,0c0.6,1.4,1.6,2.6,3,3.5c1.2,0.8,2.5,1.4,3.9,1.7c1.4,0.4,2.9,0.5,4.6,0.5c1.7,0,3.6-0.4,5.9-1.2
		c2.3-0.8,4.6-2,6.8-3.5c1.3,3.2,3.5,4.7,6.7,4.7c3,0,5.9-1.7,8.8-5.1c0,0,0,0,0.1,0c0.7-0.8,1.5-1.1,2.3-1.2c0,0,0,0.1,0.1,0.1
		c1.2,1.4,2.5,2.7,4.1,3.6c1.6,1,3.2,1.6,4.8,2c1.6,0.4,3.4,0.6,5.3,0.6s3.8-0.4,5.4-1.1c1.7-0.7,3.3-1.9,5.1-3.6
		c1.2,2.8,2.8,4.3,4.8,4.7c2.8,0,6.2-1.1,10.2-3.3c0.2-0.1,0.3-0.1,0.5-0.2c1.4-0.8,3.7-2,5.3-2.2c0.3,0,0.5,0,0.8-0.1
		c-0.1,1.9-0.2,3.4-0.4,4.5c1.2,0.5,2.7,0.7,4.4,0.7s4-0.2,6.7-0.7c0-0.8,0-1.6,0-2.4c0,0,0,0,0,0c0-1.6,1.7-2.1,2.6-2.1
		c5.1,0,9.4,0,12.5,0c0.2,1.5,0.6,2.6,1.1,3.5c0.9,1.5,2.5,2.3,4.7,2.3c2.2,0,5.6-1.2,10.1-3.5c0.9-0.5,2-0.6,3-0.8
		c0.6,0.8,1.3,1.4,2.1,2c1.2,0.8,2.5,1.4,3.9,1.7c1.4,0.4,2.9,0.5,4.6,0.5c1.7,0,3.6-0.4,5.9-1.2c2.3-0.8,4.6-2,6.8-3.5
		c1.3,3.2,3.5,4.7,6.7,4.7c3.2,0,6.3-1.9,9.3-5.7C252.7,50.4,252.5,50,252.2,49.5z"/>
</g>
</svg>
